<?xml version="1.0" standalone="no"?>
<!DOCTYPE svg PUBLIC "-//W3C//DTD SVG 20010904//EN"
 "http://www.w3.org/TR/2001/REC-SVG-20010904/DTD/svg10.dtd">
<svg version="1.0" xmlns="http://www.w3.org/2000/svg"
 width="169.000000pt" height="169.000000pt" viewBox="0 0 169.000000 169.000000"
 preserveAspectRatio="xMidYMid meet">
<metadata>
Created by potrace 1.14, written by Peter Selinger 2001-2017
</metadata>
<g transform="translate(0.000000,169.000000) scale(0.100000,-0.100000)"
fill="#000000" stroke="none">
<path d="M858 1665 c-1 -1 -39 -6 -84 -9 -44 -3 -93 -10 -109 -16 -15 -6 -30
-9 -32 -6 -8 8 -158 -60 -209 -94 -109 -75 -222 -221 -240 -308 -1 -8 -6 -21
-10 -30 -4 -9 -8 -20 -9 -24 -2 -5 -3 -9 -5 -10 -2 -3 -4 -16 -15 -73 -14 -75
-9 -300 9 -385 19 -87 22 -97 46 -165 73 -202 215 -372 382 -454 46 -23 94
-44 108 -47 100 -21 173 -23 255 -7 115 23 119 24 130 32 5 4 26 14 45 21 172
67 351 298 407 525 10 42 24 111 29 145 9 60 11 273 3 310 -4 19 -10 49 -13
65 -10 57 -23 100 -39 131 -9 17 -14 34 -11 36 2 3 -2 11 -11 18 -8 7 -15 17
-15 22 0 21 -94 130 -148 171 -48 37 -159 99 -184 103 -5 1 -9 2 -10 4 -2 1
-10 3 -18 5 -8 2 -35 8 -60 15 -25 6 -72 13 -105 16 -33 2 -65 6 -72 9 -6 2
-13 2 -15 0z m-353 -581 c17 -3 44 -7 60 -9 17 -2 57 -7 90 -11 77 -8 365 -9
430 -1 48 6 70 10 125 23 76 18 70 21 179 -88 114 -113 112 -110 98 -223 -6
-47 -9 -62 -23 -117 -3 -13 -6 -27 -8 -33 -22 -92 -81 -212 -143 -292 -122
-155 -283 -236 -473 -235 -94 0 -135 10 -239 59 -191 91 -352 350 -387 620
-12 97 -12 101 15 130 110 123 157 177 160 185 3 9 49 6 116 -8z"/>
<path d="M533 738 c-30 -14 -46 -63 -31 -91 15 -29 27 -37 61 -37 47 0 78 53
56 96 -9 17 -51 47 -62 43 -1 0 -12 -5 -24 -11z"/>
<path d="M1075 715 c-22 -8 -51 -26 -63 -41 -21 -24 -22 -28 -8 -36 12 -6 26
-2 48 14 44 31 57 31 101 1 31 -21 40 -24 47 -13 11 19 -7 45 -49 68 -33 18
-40 19 -76 7z"/>
<path d="M849 476 c-2 -2 -26 -6 -52 -9 -61 -6 -89 -30 -77 -63 5 -13 7 -24 5
-24 -16 0 41 -84 66 -99 37 -23 104 -19 133 7 40 37 71 129 53 159 -4 6 -26
14 -50 18 -23 3 -49 8 -58 11 -8 2 -17 2 -20 0z m84 -45 c4 0 7 -5 7 -10 0 -5
-8 -8 -17 -6 -10 1 -23 -2 -29 -7 -7 -5 -16 -8 -20 -7 -10 3 -52 -16 -76 -33
-20 -15 -27 -9 -34 26 -3 21 0 28 18 35 17 6 117 8 151 2z"/>
</g>
</svg>
