<?xml version="1.0" standalone="no"?>
<!DOCTYPE svg PUBLIC "-//W3C//DTD SVG 20010904//EN"
 "http://www.w3.org/TR/2001/REC-SVG-20010904/DTD/svg10.dtd">
<svg version="1.0" xmlns="http://www.w3.org/2000/svg"
 width="1080.000000pt" height="1080.000000pt" viewBox="0 0 1080.000000 1080.000000"
 preserveAspectRatio="xMidYMid meet">
<metadata>
Created by potrace 1.14, written by Peter Selinger 2001-2017
</metadata>
<g transform="translate(0.000000,1080.000000) scale(0.100000,-0.100000)"
fill="#000000" stroke="none">
<path d="M7230 10667 c-30 -4 -72 -8 -92 -9 -21 0 -38 -5 -38 -10 0 -5 -4 -6
-10 -3 -5 3 -21 -2 -35 -11 -14 -9 -25 -13 -25 -8 0 4 -5 3 -12 -4 -7 -7 -17
-12 -22 -12 -6 0 -4 5 4 10 9 6 10 10 3 10 -7 0 -16 -8 -22 -17 -5 -10 -13
-17 -18 -17 -4 1 -18 -2 -31 -7 -13 -5 -28 -9 -33 -9 -5 0 -9 -3 -9 -7 0 -5
-12 -17 -27 -27 -14 -11 -23 -14 -19 -8 12 20 -4 13 -27 -11 -12 -13 -28 -22
-36 -19 -8 2 -11 1 -8 -4 5 -9 -11 -28 -28 -33 -37 -11 -78 -34 -99 -55 -12
-14 -26 -23 -29 -19 -4 3 -7 1 -7 -5 0 -7 -7 -12 -16 -12 -9 0 -12 -5 -8 -12
5 -8 2 -9 -10 -5 -14 6 -17 3 -12 -9 6 -15 4 -15 -11 -3 -9 8 -14 10 -11 4 3
-5 0 -15 -7 -22 -11 -10 -15 -10 -18 0 -3 7 -6 4 -6 -6 -1 -10 -4 -16 -8 -14
-10 5 -43 -30 -35 -37 3 -3 -2 -6 -11 -6 -22 0 -89 -71 -83 -87 3 -7 0 -15 -6
-19 -7 -5 -8 -2 -3 6 5 9 4 11 -3 6 -7 -4 -12 -13 -12 -19 0 -7 -12 -23 -25
-36 -19 -17 -24 -19 -19 -6 5 13 0 11 -18 -6 -13 -13 -23 -27 -21 -31 2 -5 0
-8 -5 -8 -5 0 -15 -13 -22 -30 -7 -16 -17 -30 -23 -30 -6 0 -7 -3 -4 -7 4 -3
-6 -16 -22 -27 -15 -12 -26 -27 -24 -33 3 -7 -2 -13 -11 -13 -9 0 -16 -7 -16
-16 0 -9 -5 -12 -12 -8 -6 4 -8 3 -5 -4 10 -14 -3 -43 -15 -36 -6 4 -7 -2 -3
-16 4 -12 3 -20 -1 -17 -5 3 -15 -1 -22 -9 -7 -8 -9 -14 -5 -14 4 0 0 -5 -9
-11 -10 -5 -18 -17 -18 -25 0 -8 -5 -12 -10 -9 -6 3 -13 -1 -16 -9 -3 -9 -14
-16 -23 -17 -10 0 -11 -2 -4 -6 10 -4 10 -7 0 -18 -27 -31 -37 -44 -37 -50 0
-3 6 -3 13 1 6 3 1 -5 -13 -18 -14 -14 -32 -36 -40 -48 -8 -13 -23 -30 -32
-39 -10 -8 -18 -21 -18 -28 0 -7 -7 -13 -15 -13 -9 0 -12 -6 -9 -15 4 -8 1
-15 -6 -15 -6 0 -8 -4 -5 -10 3 -5 1 -10 -5 -10 -7 0 -10 -7 -6 -15 3 -8 1
-15 -4 -15 -6 0 -10 -6 -10 -13 0 -8 -9 -22 -20 -32 -11 -10 -17 -22 -14 -26
3 -5 -2 -9 -10 -9 -9 0 -16 -5 -16 -12 0 -6 -3 -8 -6 -5 -7 7 -54 -42 -54 -55
0 -26 -34 -63 -49 -53 -6 3 -11 1 -11 -5 0 -6 -7 -10 -16 -8 -16 3 -26 -17
-25 -54 0 -17 -11 -23 -32 -19 -5 1 -6 -3 -3 -8 4 -5 -7 -15 -23 -22 -17 -8
-35 -24 -42 -36 -7 -13 -16 -23 -21 -23 -4 0 -8 -7 -8 -15 0 -8 -7 -15 -15
-15 -8 0 -15 -4 -15 -10 0 -15 -33 1 -57 27 -12 13 -30 25 -41 26 -12 0 -18 5
-16 9 3 4 -2 8 -10 8 -9 0 -16 5 -16 10 0 6 -11 10 -24 10 -14 0 -28 5 -32 11
-4 8 -9 7 -15 -2 -7 -11 -9 -11 -9 -1 0 15 -37 -5 -45 -26 -3 -8 0 -10 7 -5 7
4 3 -6 -10 -21 -12 -16 -19 -32 -17 -37 3 -4 -6 -27 -19 -52 -23 -41 -31 -99
-17 -122 9 -15 10 -35 2 -35 -8 0 -45 -27 -76 -56 -12 -11 -27 -18 -34 -16 -6
2 -11 0 -10 -5 3 -17 -1 -33 -8 -31 -13 3 -63 -25 -63 -34 0 -5 -4 -7 -9 -4
-4 3 -13 -6 -20 -20 -6 -14 -15 -23 -20 -20 -5 3 -11 -1 -15 -9 -3 -8 -12 -15
-19 -15 -8 0 -22 -11 -33 -24 -10 -14 -21 -23 -26 -20 -4 3 -8 0 -8 -5 0 -6
-7 -11 -16 -11 -8 0 -13 -4 -10 -8 2 -4 -5 -9 -17 -9 -12 -1 -23 -7 -25 -13
-2 -5 -8 -8 -13 -4 -5 3 -9 0 -9 -6 0 -6 -4 -8 -10 -5 -5 3 -10 2 -10 -3 0
-17 -63 -41 -80 -32 -27 14 -69 19 -75 9 -4 -5 -13 -5 -23 0 -9 4 -25 7 -34 6
-10 -2 -18 1 -18 7 0 5 -12 8 -27 6 -20 -2 -27 1 -25 11 2 11 0 12 -11 3 -10
-9 -17 -9 -27 1 -10 9 -11 9 -6 0 5 -8 1 -13 -9 -13 -11 0 -15 -5 -11 -16 3
-8 2 -12 -4 -9 -6 3 -10 1 -10 -5 0 -16 -50 -4 -65 16 -12 17 -59 29 -49 12 3
-4 0 -8 -5 -8 -6 0 -11 7 -11 17 0 9 -3 14 -6 10 -4 -3 -14 1 -22 10 -10 10
-17 12 -20 5 -2 -6 -10 -8 -18 -5 -7 3 -12 9 -9 13 3 4 -3 7 -13 6 -9 0 -16 5
-14 12 2 9 -3 10 -15 3 -18 -9 -59 9 -48 21 3 3 -7 5 -22 5 -15 0 -36 4 -47 8
-11 5 -21 3 -26 -5 -6 -10 -9 -9 -13 1 -4 11 -6 11 -6 1 -1 -7 -4 -11 -8 -9
-5 3 -9 -7 -9 -21 -2 -37 -8 -58 -21 -73 -6 -8 -9 -25 -7 -38 3 -13 0 -29 -6
-36 -6 -7 -10 -17 -9 -21 5 -28 -3 -41 -23 -41 -43 -1 -49 -3 -42 -15 6 -10 5
-10 -7 -1 -12 10 -18 10 -27 1 -9 -9 -12 -9 -12 1 0 11 -3 11 -15 1 -11 -9
-15 -9 -15 -1 0 7 -4 9 -10 6 -5 -3 -16 -3 -22 2 -20 12 -42 9 -55 -7 -9 -11
-12 -11 -13 -2 0 10 -6 9 -29 -2 -16 -9 -32 -12 -36 -8 -5 4 -4 1 0 -7 6 -11
4 -13 -8 -8 -10 3 -17 5 -17 3 0 -11 58 -64 64 -59 3 3 6 -1 6 -10 0 -10 8
-17 21 -17 11 0 17 -4 14 -10 -3 -5 1 -10 9 -10 9 0 16 -7 16 -16 0 -8 4 -12
10 -9 6 3 10 2 10 -4 0 -5 8 -12 19 -16 28 -9 58 -38 58 -57 0 -9 -4 -15 -9
-12 -4 3 -8 -11 -8 -31 0 -24 -4 -34 -11 -29 -8 5 -8 1 0 -13 8 -17 5 -24 -17
-42 -14 -11 -24 -21 -21 -21 3 0 -14 -21 -37 -47 -24 -26 -42 -49 -40 -51 3
-2 -15 -23 -39 -46 -23 -23 -46 -52 -49 -64 -4 -12 -12 -22 -17 -22 -5 0 -9
-7 -9 -15 0 -8 -7 -15 -16 -15 -8 0 -12 -4 -9 -10 3 -5 1 -10 -5 -10 -6 0 -8
-5 -5 -10 3 -6 -1 -13 -10 -16 -13 -6 -14 -8 -3 -15 10 -7 10 -9 1 -9 -7 0
-13 -7 -13 -15 0 -7 -8 -19 -17 -24 -14 -8 -15 -11 -3 -11 12 0 11 -3 -2 -11
-10 -5 -18 -17 -18 -25 0 -8 -4 -13 -8 -10 -4 2 -9 -7 -10 -22 -1 -15 -9 -32
-17 -38 -11 -8 -12 -13 -3 -22 9 -9 9 -12 -1 -12 -7 0 -10 -4 -6 -9 3 -5 1
-12 -5 -16 -6 -4 -8 -11 -5 -16 4 -5 1 -9 -6 -9 -7 0 -9 -3 -6 -7 4 -3 2 -12
-4 -19 -6 -8 -9 -21 -5 -29 3 -8 0 -15 -6 -15 -6 0 -9 -3 -5 -6 3 -3 1 -18 -4
-32 -7 -18 -6 -28 3 -34 10 -6 9 -8 -3 -8 -12 0 -15 -7 -11 -25 2 -14 0 -25
-6 -25 -6 0 -8 -10 -4 -22 3 -14 2 -19 -6 -14 -8 5 -12 0 -12 -13 0 -15 -4
-19 -17 -14 -11 4 -14 3 -9 -5 5 -8 -1 -12 -16 -13 -36 -2 -63 2 -68 11 -3 4
-13 6 -22 4 -10 -1 -18 2 -18 8 0 6 -7 7 -15 4 -9 -3 -18 0 -21 8 -3 8 -16 12
-35 10 -16 -2 -29 0 -29 5 0 5 -10 9 -22 9 -13 0 -34 3 -48 7 -14 4 -36 9 -50
12 -14 3 -38 15 -54 26 -18 13 -26 15 -21 6 5 -7 -2 -5 -14 5 -12 11 -32 21
-44 23 -11 2 -24 8 -27 13 -3 5 -17 10 -30 12 -14 2 -30 7 -37 11 -6 4 -14 3
-18 -3 -4 -6 -11 -8 -16 -5 -5 3 -6 -1 -3 -9 3 -9 1 -16 -6 -16 -6 0 -8 -4 -5
-10 3 -5 3 -10 -2 -10 -4 0 -7 -20 -5 -45 2 -25 7 -43 11 -41 4 3 8 -4 8 -15
1 -12 -2 -17 -10 -12 -7 3 -4 -3 6 -14 9 -11 14 -23 10 -26 -3 -4 0 -7 8 -7
11 0 11 -2 -1 -10 -10 -6 -11 -10 -3 -10 7 0 12 -3 12 -7 -5 -28 2 -53 13 -47
7 5 8 3 3 -7 -15 -23 -13 -53 3 -71 12 -15 13 -18 1 -18 -11 0 -11 -2 1 -10
13 -9 13 -10 0 -10 -13 0 -13 -1 0 -11 11 -8 12 -12 2 -16 -6 -2 -9 -10 -5
-16 6 -9 7 -36 4 -94 -1 -9 -4 -14 -7 -10 -4 3 -13 -1 -21 -9 -8 -8 -25 -12
-39 -10 -13 3 -24 0 -24 -5 0 -6 -4 -8 -9 -4 -5 3 -12 1 -16 -5 -4 -6 -12 -7
-24 0 -12 6 -22 5 -29 -2 -7 -7 -12 -8 -12 -4 0 5 -8 2 -17 -5 -11 -10 -14
-10 -9 -1 4 6 2 12 -3 12 -6 0 -11 -4 -11 -8 0 -5 -18 -8 -40 -7 -22 1 -40 -3
-40 -7 0 -5 -4 -6 -10 -3 -6 3 -10 1 -10 -5 0 -6 -8 -10 -18 -9 -9 1 -19 0
-22 -1 -3 -1 -16 -3 -29 -6 -14 -2 -31 -10 -40 -17 -12 -10 -13 -9 -6 2 6 11
5 12 -6 5 -8 -5 -23 -9 -34 -9 -28 -1 -47 -14 -39 -27 5 -7 2 -8 -6 -3 -7 4
-15 2 -20 -4 -3 -7 -20 -13 -36 -15 -16 -2 -30 -5 -31 -6 -2 -1 -7 -3 -11 -4
-15 -2 -57 -51 -56 -66 1 -30 16 -60 35 -71 11 -5 17 -14 14 -20 -4 -5 1 -9 9
-9 14 0 18 -6 15 -27 0 -4 9 -10 20 -15 12 -4 21 -16 21 -27 0 -11 5 -23 10
-26 6 -3 10 -15 10 -26 0 -10 5 -19 10 -19 6 0 10 -10 10 -22 0 -19 2 -20 11
-8 9 12 10 11 6 -7 -3 -13 1 -24 10 -27 8 -3 11 -10 8 -16 -3 -6 1 -13 9 -16
9 -3 16 -15 16 -26 0 -10 3 -17 8 -14 4 2 17 -11 29 -29 l22 -33 -27 -23 c-25
-22 -40 -27 -79 -31 -7 -1 -13 -5 -13 -10 0 -5 -4 -7 -9 -4 -5 3 -11 -1 -15
-9 -3 -8 -15 -15 -26 -15 -11 0 -20 -4 -20 -9 0 -5 -16 -15 -35 -21 -19 -6
-39 -18 -43 -26 -7 -13 -24 -20 -55 -23 -5 -1 -6 -5 -2 -10 3 -6 -4 -8 -16 -6
-12 2 -19 2 -16 -2 7 -6 -41 -36 -85 -54 -16 -6 -25 -15 -22 -20 3 -5 0 -9 -7
-9 -7 0 -10 -3 -6 -6 8 -9 -16 -32 -28 -28 -11 4 -35 -40 -35 -64 0 -7 -4 -11
-9 -7 -5 3 -3 -7 4 -22 7 -16 15 -35 17 -43 2 -8 11 -22 20 -31 10 -9 14 -20
10 -24 -4 -5 -2 -5 5 -1 6 3 19 -4 27 -16 9 -12 16 -18 16 -13 0 6 4 5 8 -2 4
-7 22 -13 39 -15 17 -1 30 -5 27 -9 -2 -4 3 -9 10 -12 8 -3 17 -1 20 6 3 9 5
8 5 -1 1 -7 6 -10 11 -7 6 3 10 1 10 -5 0 -6 4 -9 9 -5 5 3 12 1 16 -5 4 -6
11 -7 17 -4 6 4 14 0 19 -7 7 -11 9 -11 9 -1 0 9 5 10 18 3 13 -7 23 -6 30 1
9 9 12 9 12 1 0 -12 18 -12 38 0 6 5 12 5 12 0 0 -4 5 -1 10 7 8 13 10 12 10
-3 0 -10 5 -15 10 -12 6 3 10 1 10 -5 0 -7 -9 -14 -20 -17 -11 -3 -17 -10 -13
-16 4 -6 1 -7 -8 -1 -20 12 -39 14 -39 3 0 -4 -7 -5 -17 -2 -11 4 -14 3 -9 -5
5 -8 -1 -12 -18 -12 -14 0 -28 -5 -31 -10 -5 -8 -12 -7 -22 1 -11 10 -16 10
-23 0 -5 -9 -10 -10 -14 -2 -8 12 -46 -7 -46 -23 0 -5 -8 -15 -17 -23 -12 -10
-13 -12 -3 -8 10 4 9 2 -2 -8 -10 -8 -16 -16 -13 -19 3 -2 -11 -3 -31 -2 -26
3 -35 0 -31 -10 4 -9 -2 -12 -19 -8 -15 3 -24 0 -24 -8 0 -10 -3 -10 -14 -1
-10 9 -16 9 -21 1 -4 -6 -15 -8 -26 -5 -13 5 -19 2 -17 -7 2 -7 -5 -12 -15
-12 -9 1 -17 -2 -17 -8 0 -5 -5 -6 -10 -3 -6 4 -9 1 -8 -7 2 -7 -3 -12 -9 -11
-7 2 -16 -9 -19 -23 -4 -16 -11 -23 -21 -20 -11 5 -13 1 -7 -16 5 -17 3 -20
-10 -15 -9 4 -16 1 -16 -6 0 -8 -4 -7 -10 3 -8 12 -10 12 -15 -2 -5 -13 -17
-16 -50 -14 -24 1 -42 -1 -39 -5 7 -12 -19 -17 -38 -8 -12 6 -19 5 -25 -5 -8
-15 -11 -16 -39 -16 -10 0 -14 -6 -10 -15 3 -8 0 -14 -7 -12 -7 1 -12 -5 -12
-13 0 -8 -7 -21 -15 -28 -13 -12 -13 -13 0 -7 8 4 6 -1 -5 -10 -11 -9 -19 -21
-17 -26 1 -6 -2 -8 -8 -4 -6 4 -17 2 -25 -5 -10 -8 -15 -8 -21 1 -5 9 -10 7
-20 -5 -6 -9 -21 -18 -33 -19 -12 -1 -21 -5 -21 -10 0 -4 -8 -7 -18 -5 -13 2
-16 -3 -14 -21 2 -13 0 -21 -5 -18 -4 3 -8 -10 -7 -28 2 -34 -7 -57 -22 -57
-5 0 -8 -4 -6 -9 1 -6 -6 -9 -15 -7 -10 2 -17 -2 -16 -8 1 -5 -12 -9 -28 -8
-16 1 -27 -1 -24 -6 2 -4 -7 -12 -21 -19 -17 -7 -24 -17 -20 -26 3 -8 1 -15
-4 -15 -6 0 -10 -9 -10 -21 0 -11 4 -18 8 -15 4 2 8 -4 8 -15 0 -10 -3 -19 -7
-19 -4 0 -5 -8 -3 -18 3 -10 -4 -22 -17 -30 -11 -8 -18 -9 -15 -3 5 7 1 8 -9
5 -9 -4 -13 -9 -10 -12 3 -3 -2 -16 -11 -30 -9 -13 -12 -22 -6 -18 5 3 12 -5
14 -19 4 -18 2 -23 -6 -16 -8 7 -12 4 -12 -9 0 -10 3 -18 6 -18 25 2 30 -3 21
-20 -7 -13 -6 -23 1 -30 9 -9 9 -12 -1 -12 -11 0 -11 -3 0 -17 10 -12 10 -15
1 -9 -10 6 -10 2 -1 -18 7 -14 15 -23 19 -21 4 2 6 -7 4 -20 -1 -16 3 -25 12
-25 14 0 17 -8 17 -42 0 -10 4 -18 9 -18 5 0 6 -4 3 -10 -3 -5 0 -10 7 -10 10
0 10 -2 -1 -9 -9 -6 -10 -11 -2 -15 6 -4 15 -5 20 -2 5 4 8 -6 6 -20 -1 -16 3
-28 13 -32 13 -5 12 -7 -4 -13 -17 -7 -16 -8 6 -8 20 -1 22 -3 10 -11 -13 -8
-13 -10 1 -10 9 0 20 -7 23 -16 4 -10 2 -13 -7 -9 -6 4 -5 1 4 -7 9 -7 15 -23
14 -35 -1 -13 3 -19 11 -16 9 3 11 -2 7 -18 -4 -12 -2 -20 3 -17 5 4 10 -12
12 -35 1 -23 8 -45 15 -49 9 -6 9 -10 -2 -17 -11 -7 -9 -10 9 -16 15 -5 19
-10 12 -17 -8 -8 -4 -17 11 -30 12 -11 17 -17 11 -14 -6 3 -11 -1 -11 -9 0 -8
4 -12 8 -9 4 2 13 -5 19 -17 10 -17 9 -20 -2 -14 -7 3 -6 1 3 -7 9 -7 14 -19
12 -25 -3 -7 0 -13 6 -13 6 0 11 -11 11 -24 0 -14 5 -28 10 -31 6 -4 8 -11 5
-16 -4 -5 0 -12 8 -15 8 -3 17 -14 20 -25 3 -11 1 -16 -5 -13 -5 4 -4 -4 3
-17 7 -13 11 -25 10 -27 -2 -2 1 -7 5 -10 4 -4 4 -1 0 5 -5 9 -2 11 9 7 13 -5
13 -9 3 -22 -11 -13 -11 -14 1 -7 11 6 13 3 9 -13 -4 -13 0 -23 9 -26 8 -3 11
-11 8 -16 -4 -6 -1 -17 5 -25 7 -8 10 -15 6 -15 -4 0 0 -10 8 -22 8 -13 15
-26 16 -30 0 -5 0 -9 1 -10 0 -2 2 -14 3 -27 2 -14 8 -27 14 -29 7 -2 12 -10
12 -18 0 -9 5 -12 13 -8 9 5 9 4 0 -6 -10 -11 -9 -18 5 -34 16 -19 16 -19 -3
-13 -17 6 -17 4 4 -13 14 -12 18 -20 10 -20 -12 0 -12 -2 0 -9 7 -5 10 -14 7
-20 -4 -6 -1 -14 7 -17 14 -5 16 -12 20 -58 1 -13 5 -22 10 -19 4 2 7 -3 7
-11 0 -9 4 -16 9 -16 5 0 8 -8 7 -18 -2 -9 4 -23 13 -30 9 -8 11 -11 5 -8 -7
3 -3 -11 7 -31 10 -20 16 -40 13 -44 -3 -5 0 -9 6 -9 7 0 7 -7 -1 -22 -12 -22
-11 -22 7 -8 10 8 16 10 12 6 -4 -5 -3 -15 3 -23 9 -10 8 -13 -2 -13 -9 -1 -8
-5 5 -15 11 -9 14 -15 7 -15 -9 0 -8 -5 3 -16 9 -8 14 -19 11 -24 -3 -5 -1
-10 5 -12 6 -2 12 -13 15 -26 2 -12 6 -26 9 -30 3 -5 6 -25 8 -45 1 -21 6 -37
11 -37 4 0 5 -5 2 -10 -3 -5 2 -10 12 -11 10 0 13 -3 6 -6 -18 -7 -16 -23 5
-40 10 -8 11 -11 2 -7 -12 7 -13 5 -3 -8 7 -8 9 -19 5 -23 -4 -5 -1 -5 6 -1
12 7 17 -14 14 -59 -2 -16 0 -17 8 -5 8 12 10 11 10 -7 0 -34 1 -37 13 -52 10
-12 9 -13 -1 -7 -10 6 -10 1 2 -22 8 -16 12 -32 9 -36 -4 -3 -1 -6 6 -6 8 0
11 -8 8 -20 -3 -11 2 -27 10 -35 8 -9 16 -21 17 -28 1 -6 5 -17 9 -24 4 -6 2
-15 -4 -19 -8 -5 -8 -8 0 -13 6 -4 13 -22 16 -41 2 -18 10 -37 17 -41 10 -7
10 -9 -2 -9 -13 0 -13 -1 0 -10 11 -7 11 -10 2 -10 -10 0 -10 -3 0 -14 7 -8
18 -11 23 -8 6 2 5 -1 -2 -8 -10 -11 -9 -16 5 -27 9 -8 11 -12 5 -8 -7 3 -13
2 -13 -4 0 -5 4 -11 10 -13 5 -2 11 -20 12 -40 2 -21 6 -38 11 -38 4 0 7 -8 7
-18 0 -10 6 -24 13 -31 9 -11 9 -13 0 -7 -18 10 -16 -9 2 -24 9 -7 13 -21 10
-31 -4 -11 -2 -19 3 -19 9 0 10 -7 13 -55 1 -14 4 -25 8 -25 4 0 8 -12 9 -27
1 -16 6 -29 11 -31 5 -2 7 -15 5 -29 -5 -24 -3 -25 12 -12 16 13 16 12 5 -10
-10 -18 -10 -25 -2 -31 7 -4 11 -11 9 -16 -1 -5 4 -20 11 -33 7 -13 9 -21 4
-18 -5 4 -10 0 -10 -8 0 -8 5 -13 11 -12 6 1 10 -4 8 -10 -1 -7 2 -13 7 -13 8
0 21 -53 22 -92 0 -10 4 -18 8 -18 5 0 7 -14 6 -30 -2 -25 0 -28 11 -19 12 10
13 8 6 -12 -10 -27 16 -82 36 -74 6 2 12 -2 12 -10 0 -8 5 -15 10 -15 6 0 9
-10 6 -22 -3 -21 16 -53 26 -43 2 2 5 -8 6 -22 1 -15 8 -30 15 -35 6 -4 9 -8
5 -8 -4 0 1 -15 11 -32 10 -18 23 -32 29 -31 13 3 66 -49 70 -68 2 -8 10 -18
18 -22 8 -4 14 -15 14 -24 0 -9 3 -13 7 -10 3 4 13 -2 20 -13 8 -11 19 -18 24
-15 5 4 9 -2 9 -11 0 -10 3 -15 6 -11 11 11 92 -65 86 -81 -2 -7 1 -12 8 -12
6 0 9 -4 5 -9 -3 -6 4 -8 15 -6 11 2 20 -1 20 -6 0 -6 7 -17 15 -25 8 -9 15
-11 15 -6 0 5 7 9 15 9 8 0 15 -7 15 -14 0 -8 5 -11 11 -8 6 4 21 -3 33 -14
13 -12 27 -21 32 -20 24 4 36 -2 30 -17 -4 -12 -2 -15 9 -11 8 4 17 2 20 -3 4
-6 15 -10 26 -10 11 0 22 -7 26 -16 4 -12 7 -13 14 -3 6 11 9 10 14 -3 4 -9
13 -14 20 -12 16 6 57 -31 47 -42 -4 -4 -1 -4 5 0 19 11 53 16 52 8 -1 -4 -1
-15 0 -26 1 -15 4 -16 15 -7 9 8 16 8 20 2 4 -6 13 -8 21 -4 8 3 15 0 15 -6 0
-6 7 -11 15 -11 8 0 15 -6 15 -12 0 -10 2 -10 9 0 6 10 10 10 21 -3 7 -9 19
-14 26 -11 7 3 14 0 16 -6 2 -6 21 -11 41 -10 21 1 35 -2 32 -7 -2 -5 2 -12
11 -15 10 -4 13 -2 8 7 -5 7 -1 7 10 -2 9 -8 29 -16 42 -17 14 -2 33 -9 42
-16 12 -10 14 -10 8 0 -4 6 -2 12 3 12 6 0 11 -6 11 -12 0 -9 4 -8 10 2 6 10
10 11 10 3 0 -7 8 -13 18 -13 10 0 28 -7 40 -16 13 -9 22 -11 22 -4 0 6 5 8
10 5 6 -4 8 -11 5 -16 -3 -5 2 -6 11 -2 13 5 15 3 9 -7 -6 -9 -4 -11 6 -5 22
14 48 13 61 -2 9 -11 13 -12 19 -1 7 10 9 10 9 1 0 -7 9 -13 19 -13 11 0 22
-6 24 -12 4 -10 6 -9 6 1 1 11 4 11 18 0 11 -10 14 -10 9 -1 -4 6 -3 12 3 12
5 0 13 -5 16 -10 5 -8 11 -8 20 0 10 8 15 8 20 0 5 -8 10 -8 20 0 9 8 14 6 19
-6 4 -9 9 -14 13 -11 3 4 13 1 21 -6 13 -9 14 -9 8 1 -10 17 10 15 39 -4 14
-9 22 -20 19 -25 -3 -5 0 -9 5 -9 6 0 11 4 11 8 0 13 41 12 46 -2 3 -7 19 -11
39 -10 21 2 41 -3 50 -12 10 -10 15 -11 15 -3 0 9 3 9 14 0 11 -9 15 -9 18 1
4 10 8 10 20 1 11 -10 17 -10 27 0 9 9 14 9 21 -3 9 -13 10 -13 10 0 1 13 2
13 13 0 7 -9 27 -15 47 -14 19 0 45 -5 57 -12 17 -11 23 -11 27 -1 5 9 7 9 12
0 3 -7 12 -9 21 -6 11 4 14 3 9 -6 -5 -8 0 -10 18 -7 14 3 28 0 31 -5 4 -5 14
-5 26 1 14 8 19 7 19 -2 0 -10 2 -10 9 1 7 11 9 11 14 0 3 -8 6 -9 6 -3 1 14
62 8 72 -7 4 -8 8 -7 12 2 5 12 6 12 6 0 1 -11 4 -11 16 -1 11 9 15 9 15 1 0
-9 5 -9 20 -1 16 9 22 8 27 -6 6 -15 7 -15 20 2 12 16 15 17 23 4 9 -13 10
-13 10 0 0 13 2 13 9 1 7 -11 13 -12 24 -3 10 9 18 9 32 -2 11 -8 26 -11 34
-8 10 4 12 1 6 -8 -5 -9 -4 -11 3 -6 23 14 56 16 64 3 4 -7 8 -8 8 -1 0 12 49
13 68 0 21 -13 82 -13 82 1 0 12 30 10 52 -3 6 -4 8 -3 4 4 -8 14 36 12 46 -3
5 -6 8 -6 8 2 0 7 7 10 15 7 8 -4 12 -10 9 -15 -7 -12 3 -11 28 2 16 9 19 8
13 -2 -6 -9 -2 -11 13 -7 12 4 22 2 22 -3 0 -4 7 -6 15 -3 8 4 13 9 10 13 -3
6 28 7 45 1 3 -1 24 -2 48 -2 23 0 42 -3 42 -8 0 -4 58 -7 129 -6 75 1 127 -3
124 -8 -4 -5 0 -6 8 -1 7 5 28 8 47 7 21 -2 31 1 27 7 -4 7 22 10 74 8 44 -2
78 0 76 3 -5 8 25 5 47 -4 9 -4 26 -2 38 4 15 8 20 8 16 1 -4 -6 -2 -11 4 -11
6 0 13 7 16 15 7 18 34 20 34 3 0 -6 8 -4 19 6 11 10 25 15 32 10 8 -4 10 -3
5 4 -4 7 -3 12 3 12 5 0 12 -6 15 -12 5 -10 7 -10 12 0 3 6 10 12 15 12 6 0 8
-4 5 -9 -8 -13 40 -31 52 -19 6 6 12 6 16 -1 5 -7 13 -7 26 1 14 9 22 9 33 0
7 -7 17 -9 21 -5 8 9 33 14 69 14 15 0 27 5 27 10 0 6 7 6 18 0 13 -7 23 -6
30 1 9 9 12 9 12 0 0 -7 5 -12 11 -12 5 0 7 6 4 13 -4 6 0 4 8 -6 13 -16 15
-16 21 -2 4 12 10 13 24 6 13 -7 22 -7 30 1 9 9 12 9 12 -1 0 -11 3 -11 17 0
15 12 16 12 8 -1 -8 -13 -7 -13 8 -1 14 11 17 11 17 0 0 -11 2 -11 10 1 6 9
10 10 10 3 0 -13 38 -12 59 1 8 5 17 3 23 -5 7 -11 11 -11 15 -1 2 6 9 12 14
12 6 0 7 -6 3 -12 -6 -10 -4 -10 8 0 10 8 19 9 22 3 4 -5 15 -5 30 2 13 7 22
16 19 21 -4 5 0 6 8 0 20 -12 39 -14 39 -3 0 6 5 7 10 4 6 -3 10 -1 10 4 0 6
14 11 31 11 17 0 28 4 24 10 -10 16 2 12 20 -7 13 -13 19 -13 25 -3 4 7 14 10
21 8 8 -3 20 1 27 9 16 16 36 17 26 2 -5 -8 -1 -8 14 0 15 8 22 8 25 -2 4 -9
6 -9 6 1 1 6 8 12 17 12 8 0 12 5 9 10 -3 6 -1 10 4 10 6 0 11 -4 11 -9 0 -11
39 -9 58 3 7 4 16 4 22 1 6 -3 10 -1 10 6 0 7 3 9 7 6 3 -4 12 -2 19 4 10 8
15 8 19 -3 8 -19 45 -21 45 -2 0 8 5 12 10 9 6 -3 10 -1 10 6 0 9 3 9 14 0 11
-9 15 -9 18 0 2 7 15 12 28 13 14 1 30 5 36 9 6 3 14 3 18 0 11 -11 35 -12 42
-1 3 5 15 2 27 -9 11 -10 18 -13 14 -7 -7 11 31 49 41 40 3 -3 12 0 20 7 10 7
13 8 9 1 -4 -8 2 -11 18 -10 14 0 25 4 25 9 0 4 6 7 14 7 8 0 16 4 18 9 2 6
22 11 46 12 23 2 42 7 42 12 0 5 6 4 14 -2 10 -8 16 -9 21 -1 9 15 38 13 29
-2 -4 -7 5 -2 21 12 16 14 25 19 20 11 -5 -9 1 -8 18 4 14 9 30 17 34 18 4 1
7 5 6 8 -1 3 4 6 12 6 8 0 12 -5 8 -10 -3 -5 5 -3 18 4 13 7 27 12 32 11 4 -1
7 2 7 8 0 5 6 7 14 4 8 -3 17 -1 20 5 4 5 18 8 31 5 14 -2 25 0 25 6 0 5 5 10
11 10 5 0 7 -6 4 -13 -4 -6 0 -4 8 5 10 13 16 15 25 6 9 -9 12 -9 12 0 0 7 9
12 20 12 11 0 20 5 20 10 0 6 11 10 24 10 14 0 28 5 31 10 4 6 11 8 16 5 5 -4
9 -2 9 4 0 5 9 8 20 6 11 -2 18 0 16 4 -8 13 31 43 58 46 14 2 30 6 35 10 6 3
11 0 11 -7 0 -9 3 -9 10 2 8 12 10 12 10 1 0 -11 5 -10 24 2 13 9 34 14 45 12
12 -2 19 0 16 6 -6 9 9 14 30 9 6 -1 7 1 3 5 -4 4 7 20 25 36 18 16 33 25 35
19 2 -5 13 -1 24 10 11 10 27 16 36 13 9 -4 13 -2 9 4 -5 7 6 10 30 9 31 -1
36 2 40 23 5 33 9 36 30 20 9 -8 14 -9 12 -4 -6 11 20 38 42 43 8 2 18 10 22
18 5 8 12 12 18 9 5 -4 9 -1 9 5 0 6 4 9 9 6 5 -3 16 6 25 19 9 14 21 23 25
21 9 -6 52 39 50 52 -3 19 2 33 10 27 5 -3 16 1 24 9 8 8 17 12 21 9 3 -3 8 2
12 11 3 9 12 16 19 16 8 0 11 8 8 19 -2 10 3 25 11 34 18 18 21 43 10 106 -5
29 -4 42 3 38 6 -4 9 5 7 23 -2 17 0 30 4 30 4 0 9 16 10 36 2 20 7 44 11 53
5 9 6 29 4 44 -2 16 0 26 5 23 6 -3 12 6 15 19 2 14 1 28 -4 31 -11 6 1 37 18
47 7 4 13 17 13 27 0 11 4 20 8 20 5 0 10 21 10 46 1 25 6 53 11 62 5 10 7 28
6 42 -1 14 2 33 6 42 5 9 10 28 11 41 2 17 7 23 17 19 9 -3 12 -1 7 6 -4 7 -2
12 4 12 6 0 8 4 5 10 -3 5 0 10 7 10 9 0 9 3 -2 10 -11 7 -11 10 -2 10 7 0 11
4 8 8 -2 4 -1 14 4 22 5 8 4 22 -1 32 -7 13 -6 18 2 16 7 -2 14 12 16 32 3 19
9 37 14 38 5 2 9 12 9 22 0 10 4 21 9 25 5 3 9 19 9 35 -1 16 3 35 9 42 5 7 9
25 8 41 0 15 4 27 10 27 5 0 3 5 -5 10 -12 7 -12 10 -1 10 7 0 11 6 8 14 -3 8
-3 17 1 21 4 4 7 12 7 18 1 7 7 11 15 9 11 -3 11 0 0 12 -7 9 -8 16 -3 16 6 0
10 8 10 18 0 58 4 73 16 66 8 -5 8 -3 -2 9 -11 14 -11 18 2 23 9 3 13 12 10
20 -3 8 -1 14 4 14 5 0 9 15 8 34 0 19 2 33 6 31 3 -3 11 6 17 20 8 18 8 25
-1 29 -9 3 -9 5 0 5 7 1 10 8 7 16 -4 9 0 15 7 15 12 0 12 2 0 9 -9 6 -10 11
-2 15 6 4 11 20 11 36 0 16 5 32 10 35 6 4 8 10 5 15 -3 5 -1 11 5 15 15 9 12
27 -2 20 -7 -4 -6 -1 2 7 8 7 15 25 14 40 -1 16 4 28 9 28 6 0 7 3 4 6 -3 4
-2 15 3 25 7 12 6 19 -3 22 -7 3 -5 6 6 6 9 1 16 4 16 8 -3 18 2 34 9 30 4 -3
8 11 9 31 1 19 12 49 24 65 12 16 17 27 11 23 -5 -3 -12 1 -16 9 -3 9 0 15 9
15 13 0 20 18 16 43 0 4 5 7 11 7 9 0 8 4 -2 10 -9 6 -11 10 -3 10 7 0 10 7 7
15 -4 8 -1 15 6 15 10 0 9 4 -1 16 -10 13 -10 17 1 24 7 4 11 17 7 29 -3 12
-1 19 4 15 10 -6 12 4 11 48 0 16 4 27 11 25 7 -1 11 4 9 11 -1 7 5 29 13 49
8 20 13 38 10 41 -2 3 3 11 13 19 9 8 11 12 5 8 -19 -9 -16 6 5 22 9 8 11 12
5 8 -7 -3 -13 -2 -13 4 0 5 5 11 11 13 9 3 15 22 18 51 1 5 4 6 9 4 4 -3 8 13
9 36 2 22 8 44 14 48 6 4 8 12 5 18 -4 6 -2 11 4 11 6 0 9 4 5 9 -3 5 -1 12 5
16 5 3 10 15 10 26 0 11 4 18 9 15 5 -4 7 3 4 14 -3 12 0 20 7 20 9 0 10 3 1
14 -9 11 -8 15 6 20 15 6 15 8 3 16 -11 7 -12 10 -2 10 7 0 11 4 7 9 -3 5 -1
13 5 16 8 5 7 12 -2 23 -8 10 -9 13 -1 9 12 -8 29 27 25 51 -2 6 2 12 7 12 6
0 8 6 5 14 -3 7 1 16 9 19 10 4 13 14 9 33 -3 15 -1 24 4 21 5 -3 9 12 9 33 0
22 4 36 9 33 5 -4 6 1 2 12 -5 15 -4 16 8 6 11 -9 14 -8 12 6 0 10 -5 21 -11
25 -6 5 -4 8 5 8 13 0 13 1 0 10 -13 8 -13 10 2 10 11 0 15 5 12 15 -4 8 -1
15 6 15 10 0 10 3 0 15 -10 12 -10 15 1 15 12 0 12 2 0 9 -9 6 -10 11 -2 15 6
4 9 12 6 17 -4 5 -2 9 2 9 13 0 11 40 -2 40 -5 0 -2 7 7 14 10 7 15 16 11 19
-3 4 2 7 12 7 10 0 15 3 12 7 -4 3 1 12 11 19 11 9 12 13 4 14 -8 0 -6 8 8 22
15 16 17 24 8 30 -9 5 -8 8 4 8 10 0 17 6 15 13 -1 6 4 11 10 10 7 -2 12 3 10
10 -1 6 4 11 12 9 12 -3 12 -1 0 14 -12 15 -12 16 0 9 11 -6 13 -3 8 17 -4 14
-4 28 0 32 10 10 11 46 1 40 -10 -6 -6 26 6 45 6 10 5 12 -2 7 -16 -9 -15 7 0
22 9 9 9 12 -1 12 -7 0 -9 5 -6 10 4 6 10 8 15 5 5 -3 7 6 4 21 -3 14 0 32 6
39 8 10 8 15 -1 21 -8 5 -9 3 -4 -6 6 -9 4 -11 -4 -6 -7 5 -10 14 -7 22 3 8 0
11 -9 7 -8 -3 -18 2 -21 11 -3 9 -11 13 -18 9 -6 -4 -5 1 3 10 10 13 10 17 1
17 -7 0 -10 8 -7 20 3 11 1 20 -4 20 -6 0 -5 8 1 20 9 16 8 19 -6 13 -12 -4
-15 -3 -10 5 4 7 1 15 -8 18 -8 3 -17 12 -20 20 -3 8 -2 13 3 10 5 -3 11 3 14
14 3 11 1 18 -4 14 -9 -5 -13 10 -10 30 1 5 -3 12 -9 16 -6 4 -13 16 -14 26
-2 10 -19 28 -39 40 -21 11 -34 24 -30 27 3 4 1 7 -6 7 -7 0 -9 5 -6 11 4 5
-1 19 -11 30 -13 15 -19 16 -25 7 -6 -9 -10 -7 -15 7 -10 25 -70 85 -78 78 -3
-4 -6 0 -6 8 0 11 -2 11 -10 -1 -8 -13 -10 -12 -10 4 0 12 -5 16 -15 12 -8 -3
-14 0 -12 6 1 7 -5 13 -13 13 -8 0 -14 6 -13 13 2 7 -3 11 -10 9 -6 -1 -11 3
-10 9 1 6 -9 10 -23 8 -21 -2 -23 0 -13 12 7 8 8 14 3 13 -5 -1 -18 -1 -29 0
-17 1 -18 3 -5 11 13 8 12 10 -2 10 -10 0 -18 6 -18 13 0 8 -4 7 -10 -3 -8
-13 -10 -12 -10 3 0 11 -6 17 -12 14 -7 -2 -19 3 -26 12 -10 12 -12 13 -6 1 7
-13 5 -13 -9 -2 -9 8 -21 11 -26 7 -6 -3 -8 0 -5 8 4 11 -2 14 -26 11 -19 -2
-29 0 -25 6 4 6 -9 10 -29 10 -25 0 -36 5 -36 15 0 8 -6 12 -13 9 -22 -8 -38
21 -41 71 -2 38 0 45 13 40 12 -5 13 -3 4 6 -6 6 -9 18 -6 27 5 11 3 13 -8 7
-11 -7 -12 -6 -4 6 12 17 13 39 1 57 -4 7 -2 19 4 27 10 12 10 15 -1 15 -12 0
-12 2 0 9 9 6 10 11 2 15 -6 4 -8 13 -4 19 11 16 11 87 0 80 -4 -2 -5 9 -2 26
4 21 1 31 -7 31 -9 0 -8 3 2 10 12 7 12 10 1 10 -7 0 -11 6 -7 15 3 8 1 15 -5
15 -6 0 -9 6 -6 13 2 6 -1 19 -8 27 -6 8 -17 35 -24 60 -7 25 -20 53 -28 62
-8 9 -12 22 -8 27 3 6 1 11 -4 11 -6 0 -11 7 -11 15 0 8 -4 15 -9 15 -8 0 -16
19 -19 43 0 5 -9 15 -19 24 -11 9 -12 12 -3 8 8 -4 6 1 -5 10 -11 9 -20 20
-20 25 0 4 -10 20 -22 33 -12 14 -19 28 -16 31 4 3 -1 6 -11 6 -9 0 -15 4 -12
9 3 5 -17 33 -44 62 -28 30 -50 62 -50 72 0 10 -4 16 -9 12 -9 -5 -26 12 -26
27 0 4 -8 17 -17 28 -10 11 -18 27 -18 36 0 8 -4 12 -10 9 -5 -3 -10 3 -10 15
0 12 -4 18 -10 15 -5 -3 -10 -3 -11 2 -3 31 -10 47 -30 64 -12 10 -19 19 -15
19 4 0 -11 18 -33 39 -22 21 -37 42 -34 45 4 3 -1 6 -10 6 -10 0 -17 6 -17 13
0 7 -9 18 -20 25 -11 7 -20 17 -20 22 0 11 -66 81 -75 80 -6 0 -27 16 -66 52
-16 14 -29 24 -29 21 0 -3 -12 6 -26 20 -15 15 -30 24 -35 21 -5 -3 -12 2 -15
10 -3 9 -12 16 -20 16 -8 0 -14 5 -14 11 0 5 -4 8 -9 5 -5 -3 -20 4 -35 15
-14 11 -31 17 -37 13 -8 -4 -9 -3 -5 4 4 7 2 12 -4 12 -6 0 -8 5 -5 10 3 6 1
10 -5 10 -6 0 -8 5 -5 10 3 6 0 10 -8 10 -8 0 -18 8 -21 17 -6 15 -8 15 -16 3
-6 -8 -10 -11 -10 -7 0 4 -9 3 -19 -3 -13 -7 -22 -7 -26 0 -3 5 -14 10 -23 10
-24 0 -77 47 -60 53 8 4 7 6 -4 6 -10 1 -18 6 -18 11 0 6 -6 10 -14 10 -8 0
-18 4 -21 10 -3 6 1 7 12 4 10 -3 5 3 -12 12 -16 10 -34 17 -38 16 -5 -2 -22
-4 -39 -6 -17 -2 -34 -9 -38 -16 -5 -8 -10 -8 -14 -2 -3 6 -15 8 -26 5 -11 -3
-17 -10 -13 -16 4 -6 1 -7 -8 -1 -8 4 -34 10 -59 12 -25 2 -52 10 -61 18 -9 8
-19 11 -23 7 -25 -26 -64 6 -73 58 -3 19 -11 46 -19 60 -7 15 -10 29 -7 33 4
3 1 6 -5 6 -7 0 -12 14 -12 30 0 17 -4 30 -10 30 -5 0 -10 9 -10 20 0 11 -4
20 -8 20 -8 0 -36 60 -33 73 0 4 -3 7 -8 7 -7 0 -13 14 -21 48 -1 4 -7 14 -14
22 -8 8 -12 23 -11 33 2 9 -3 17 -11 17 -7 0 -11 6 -8 13 3 8 -2 20 -11 27 -8
7 -15 19 -15 27 0 8 -4 11 -10 8 -5 -3 -10 -1 -10 5 0 6 -7 19 -16 27 -8 9
-13 24 -11 35 3 10 1 16 -4 12 -9 -5 -13 9 -10 35 2 7 -2 10 -8 6 -6 -3 -11 1
-11 9 0 25 -22 66 -32 59 -6 -3 -5 5 2 17 8 15 8 20 1 16 -6 -4 -11 0 -11 9 0
9 -4 13 -10 10 -6 -4 -10 5 -10 19 0 14 -4 26 -9 26 -5 0 -12 8 -16 19 -3 10
-14 29 -25 41 -10 12 -16 29 -13 37 4 11 2 14 -5 9 -7 -4 -12 -1 -12 9 0 8 -6
18 -14 21 -8 3 -19 19 -25 35 -5 16 -15 29 -21 29 -7 0 -10 6 -8 12 3 7 -1 19
-9 26 -7 8 -10 19 -6 25 4 6 0 8 -10 4 -11 -4 -15 -1 -12 14 2 10 0 19 -5 19
-11 0 -76 141 -72 155 2 5 1 7 -3 3 -10 -10 -35 17 -35 37 0 9 -4 13 -10 10
-5 -3 -10 3 -10 13 0 11 -7 23 -16 26 -9 4 -14 9 -11 13 4 3 -3 19 -14 34 -11
16 -17 33 -14 39 3 5 -1 10 -10 10 -9 0 -14 4 -10 9 3 5 -2 16 -10 24 -17 18
-20 31 -4 21 6 -3 4 4 -4 17 -8 13 -14 34 -12 47 1 12 -1 22 -5 22 -3 0 -6 10
-7 22 -1 11 -6 24 -10 27 -4 3 -10 15 -11 26 -2 11 -7 22 -10 25 -11 8 -9 64
3 72 6 5 6 8 -2 8 -6 0 -10 9 -8 19 3 15 -1 18 -12 14 -12 -5 -14 -3 -7 8 12
19 13 58 2 65 -5 3 -2 17 7 31 10 14 12 22 6 19 -6 -4 -11 -3 -11 3 0 5 8 15
18 20 9 6 12 11 6 11 -14 0 -13 32 1 42 6 5 5 8 -3 8 -11 0 -9 50 3 71 3 4 -1
10 -7 12 -10 4 -10 6 0 6 7 1 10 6 7 11 -3 6 -1 10 5 10 7 0 8 6 2 18 -5 9 -6
26 -2 37 4 11 3 26 -2 33 -7 8 -7 12 0 12 6 0 9 7 6 15 -4 8 -1 15 6 15 6 0
10 6 8 12 -3 7 1 19 9 26 7 8 11 18 8 23 -4 5 -2 9 3 9 5 0 8 10 7 23 -1 12 3
25 8 29 7 4 6 12 -2 22 -8 10 -9 16 -3 16 6 0 11 8 11 18 3 69 7 101 14 108 4
4 7 16 7 26 0 10 5 18 11 18 6 0 9 7 5 15 -3 8 -2 14 2 14 19 -3 25 2 12 11
-13 8 -12 10 4 10 12 0 16 5 12 15 -3 8 -1 15 4 15 6 0 10 8 10 18 0 10 10 29
22 42 12 13 23 30 24 37 3 18 30 43 38 35 4 -3 4 1 0 11 -3 10 -1 17 5 17 6 0
11 8 11 17 0 9 3 14 6 10 8 -8 34 18 34 33 0 6 5 8 10 5 6 -3 10 -1 10 4 0 6
9 20 20 31 12 12 18 25 15 31 -4 5 -3 8 2 7 15 -4 53 13 53 24 0 5 7 7 16 4
10 -4 13 -2 8 6 -5 7 -2 9 9 5 11 -4 20 4 32 29 9 19 20 34 26 34 6 0 7 5 4
10 -3 6 -1 10 5 10 6 0 8 5 5 10 -3 6 1 10 9 10 9 0 16 5 16 11 0 5 5 7 10 4
6 -3 10 -1 10 5 0 7 7 10 14 7 9 -4 17 2 21 14 4 10 13 19 21 19 8 0 14 8 14
18 0 14 2 15 10 2 8 -13 10 -13 10 2 0 9 9 20 20 23 22 7 24 13 11 33 -10 17
-66 20 -141 9z m375 -3267 c3 -5 1 -10 -4 -10 -6 0 -11 5 -11 10 0 6 2 10 4
10 3 0 8 -4 11 -10z"/>
<path d="M9433 2985 c0 -8 4 -12 9 -9 5 3 6 10 3 15 -9 13 -12 11 -12 -6z"/>
<path d="M1980 810 c-12 -7 -12 -11 -2 -20 6 -5 10 -7 7 -4 -3 4 0 13 6 21 13
15 10 16 -11 3z"/>
<path d="M7705 60 c-3 -6 1 -7 9 -4 18 7 21 14 7 14 -6 0 -13 -4 -16 -10z"/>
<path d="M8067 51 c3 -12 14 -18 35 -19 23 -1 28 3 24 14 -3 9 -6 19 -6 22 0
4 -4 1 -9 -7 -6 -10 -13 -10 -29 -2 -17 9 -19 8 -15 -8z"/>
<path d="M7985 50 c-4 -6 -3 -10 2 -9 4 1 10 0 13 -1 25 -10 61 -9 58 1 -5 15
-65 22 -73 9z"/>
<path d="M6885 36 c-27 -29 -23 -32 42 -32 61 1 66 3 68 23 1 14 -3 19 -9 15
-16 -10 -29 -10 -43 1 -9 6 -13 6 -13 -2 0 -11 -21 -11 -30 0 -3 4 -10 2 -15
-5z"/>
</g>
</svg>
