<svg xmlns="http://www.w3.org/2000/svg">

    <symbol viewBox="0 0 10 10" id="mail">
        <g>
            <path d="M8.33 8.33L1.66 8.33C1.2 8.33 0.83 7.96 0.83 7.5L0.83 2.46C0.85 2.01 1.22 1.66 1.66 1.66L8.33 1.66C8.79 1.66 9.16 2.03 9.16 2.5L9.16 7.5C9.16 7.96 8.79 8.33 8.33 8.33ZM1.66 3.27L1.66 7.5L8.33 7.5L8.33 3.27L5 5.5L1.66 3.27ZM2 2.5L5 4.5L8 2.5L2 2.5Z" fill="#79819A" fill-opacity="1" fill-rule="nonzero"/>
        </g>
    </symbol>

    <symbol viewBox="0 0 10 10" id="link">
        <g>
            <path d="M3.52 8.55C2.68 8.55 1.92 8.04 1.6 7.27C1.27 6.49 1.45 5.59 2.05 5L2.93 4.11L3.52 4.7L2.64 5.58C2.32 5.9 2.2 6.36 2.31 6.79C2.43 7.22 2.77 7.56 3.2 7.68C3.63 7.79 4.09 7.67 4.41 7.35L5.29 6.47L5.88 7.06L5 7.94C4.61 8.33 4.07 8.55 3.52 8.55ZM3.82 6.76L3.23 6.17L6.17 3.23L6.76 3.82L3.82 6.76L3.82 6.76ZM7.06 5.88L6.47 5.29L7.35 4.41C7.67 4.09 7.8 3.63 7.68 3.19C7.57 2.76 7.23 2.42 6.8 2.31C6.36 2.19 5.9 2.32 5.58 2.64L4.7 3.52L4.11 2.93L5 2.05C5.81 1.24 7.12 1.24 7.94 2.05C8.75 2.87 8.75 4.18 7.94 4.99L7.06 5.88L7.06 5.88Z" fill="#79819A" fill-opacity="1" fill-rule="nonzero"/>
        </g>
    </symbol>

    <symbol viewBox="0 0 10 10" id="phone">
        <g>
            <path d="M7.91 8.33C4.36 8.33 1.66 5.6 1.66 2.08C1.66 1.85 1.85 1.66 2.08 1.66L3.18 1.66C3.38 1.66 3.56 1.81 3.59 2.02C3.66 2.51 3.81 2.98 4.01 3.43L4.06 3.53C4.12 3.65 4.08 3.81 3.96 3.89C3.62 4.13 3.49 4.62 3.75 5C4.09 5.48 4.51 5.9 4.99 6.24C5.37 6.5 5.86 6.37 6.1 6.03C6.18 5.91 6.34 5.87 6.47 5.93L6.56 5.98C7.01 6.18 7.48 6.33 7.97 6.4C8.18 6.43 8.33 6.61 8.33 6.81L8.33 7.91C8.33 8.14 8.14 8.33 7.91 8.33L7.91 8.33Z" fill="#79819A" fill-opacity="1" fill-rule="evenodd"/>
        </g>
    </symbol>

    <symbol viewBox="0 0 10 10" id="location">
        <g>
            <path d="M5 8.75C4.47 8.3 3.98 7.8 3.54 7.27C2.87 6.48 2.08 5.29 2.08 4.16C2.08 2.98 2.79 1.92 3.88 1.47C4.97 1.01 6.22 1.26 7.06 2.1C7.61 2.64 7.91 3.39 7.91 4.16C7.91 5.29 7.12 6.48 6.45 7.27C6.01 7.8 5.52 8.3 5 8.75ZM5 2.91C4.55 2.91 4.14 3.15 3.91 3.54C3.69 3.92 3.69 4.4 3.91 4.79C4.14 5.17 4.55 5.41 5 5.41C5.69 5.41 6.25 4.85 6.25 4.16C6.25 3.47 5.69 2.91 5 2.91Z" fill="#79819A" fill-opacity="1" fill-rule="nonzero"/>
        </g>
    </symbol>

    <symbol viewBox="0 0 512 512" id="insta">
        <g fill="#fff">
            <path d="M303.8 131h-95.5c-42.6 0-77.2 34.6-77.2 77.2v95.5c0 42.6 34.6 77.2 77.2 77.2h95.5c42.6 0 77.2-34.6 77.2-77.2v-95.5c0-42.6-34.6-77.2-77.2-77.2zm49.3 172.8c0 27.2-22.1 49.4-49.4 49.4h-95.5c-27.2 0-49.4-22.1-49.4-49.4v-95.5c0-27.2 22.1-49.4 49.4-49.4h95.5c27.2 0 49.4 22.1 49.4 49.4z"/>
            <path d="M256 192.1c-35.2 0-63.9 28.7-63.9 63.9s28.7 63.9 63.9 63.9 63.9-28.7 63.9-63.9-28.7-63.9-63.9-63.9zm0 102.7c-21.4 0-38.8-17.4-38.8-38.8s17.4-38.8 38.8-38.8 38.8 17.4 38.8 38.8-17.4 38.8-38.8 38.8z"/>
            <circle cx="323.1" cy="188.4" transform="rotate(-9.25 323.353 188.804)" r="10.8"/>
        </g>
    </symbol>

    <symbol viewBox="0 0 512 512" id="dribbble">
        <g>
            <path fill="#FFF" d="M294.92 247.16c-3.41-7.87-6.96-15.72-10.74-23.49 32.3-13.99 58.26-32.99 77.6-57.08 18.87 22.29 30.71 50.6 32.46 81.6-36.01-5.9-69.13-6.23-99.32-1.03zm38.03 124.07c-6.13-32.9-15.11-65.06-26.85-96.44 26.23-3.71 55.1-2.75 86.68 2.74-6.1 38.97-28.34 72.62-59.83 93.7zm-162.03-6c27.54-43.2 62.69-71.31 106.25-84.29a547.863 547.863 0 0 1 28.58 104.32c-45.38 17.54-96.36 10-134.83-20.03zm-53.36-112.8c53.81-.08 100.24-6.26 139.13-18.5 3.26 6.64 6.38 13.31 9.37 20.03-47.25 14.76-86.2 45.04-116.58 90.62-21.87-26.25-32.75-58.08-31.92-92.15zm75.9-119.99c18.62 24.37 35.11 49.49 49.46 75.26-34 10.01-74.55 15.15-121.46 15.47 9.69-39.65 36.39-72.62 72-90.73zm147.05 13.91c-16.84 21.73-40.1 38.91-69.74 51.46-14.2-26.02-30.43-51.4-48.77-76.04 41.52-10.58 84.45-1.72 118.51 24.58zM256 88.18c-92.68 0-167.82 75.14-167.82 167.82 0 92.68 75.14 167.82 167.82 167.82 92.68 0 167.82-75.14 167.82-167.82 0-92.68-75.14-167.82-167.82-167.82z"/>
        </g>
    </symbol>

    <symbol viewBox="0 0 112.197 112.197" id="twitter">
        <g>
            <path d="M90.461 40.316a26.753 26.753 0 0 1-7.702 2.109 13.445 13.445 0 0 0 5.897-7.417 26.843 26.843 0 0 1-8.515 3.253 13.396 13.396 0 0 0-9.79-4.233c-7.404 0-13.409 6.005-13.409 13.409 0 1.051.119 2.074.349 3.056-11.144-.559-21.025-5.897-27.639-14.012a13.351 13.351 0 0 0-1.816 6.742c0 4.651 2.369 8.757 5.965 11.161a13.314 13.314 0 0 1-6.073-1.679l-.001.17c0 6.497 4.624 11.916 10.757 13.147a13.362 13.362 0 0 1-3.532.471c-.866 0-1.705-.083-2.523-.239 1.706 5.326 6.657 9.203 12.526 9.312a26.904 26.904 0 0 1-16.655 5.74c-1.08 0-2.15-.063-3.197-.188a37.929 37.929 0 0 0 20.553 6.025c24.664 0 38.152-20.432 38.152-38.153 0-.581-.013-1.16-.039-1.734a27.192 27.192 0 0 0 6.692-6.94z" style="fill:#FFFFFF"/>
        </g>
    </symbol>

    <symbol viewBox="0 0 550 550" id="linkedin">
        <g>
            <path d="M219.2 366.5h-38.8V242.2h38.8v124.3zm-20.4-139.9h-.3c-14.1 0-23.2-9.5-23.2-21.6 0-12.3 9.4-21.6 23.7-21.6 14.3 0 23.1 9.3 23.4 21.5.1 12.2-9 21.7-23.6 21.7zm175.8 139.9h-44v-64.3c0-16.8-6.9-28.3-22-28.3-11.6 0-18 7.7-21 15.2-1.1 2.7-.9 6.4-.9 10.2v67.3H243s.6-113.9 0-124.3h43.6v19.5c2.6-8.5 16.5-20.7 38.8-20.7 27.6 0 49.3 17.9 49.3 56.4v69z" fill="#FFF"/>
        </g>
    </symbol>

    <symbol viewBox="0 0 3 2" id="italian">
        <g>    
            <path fill="#009246" d="M0 0h3v2H0z"/>
            <path fill="#fff" d="M1 0h2v2H1z"/>
            <path fill="#ce2b37" d="M2 0h1v2H2z"/>
        </g>
    </symbol>

    <symbol viewBox="0 0 27 18" id="greece">
        <g>
            <path fill="#0D5EAF" d="M0 0h27v18H0z"/>
            <path fill="none" stroke-width="2" stroke="#FFF" d="M5 0v11M0 5h10m0-2h17M10 7h17M0 11h27M0 15h27"/>
        </g>
    </symbol>

    <symbol viewBox="0 0 19 14" id="england">
        <g fill="none">
            <path d="M1.44 0L16.55 0C17.53 0 18.33 0.83 18.33 1.86L18.33 12.13C18.33 13.16 17.53 14 16.55 14L1.44 14C0.46 14 -0.34 13.16 -0.34 12.13L-0.34 1.86C-0.34 0.83 0.46 0 1.44 0Z" fill="#22438B" fill-opacity="1.000000" fill-rule="evenodd"/>
            <path d="M2.33 0.93L0.53 0.95L0.55 2.79L15.65 13.09L17.46 13.05L17.42 11.22L2.33 0.93Z" fill="#FFFFFF" fill-opacity="1.000000" fill-rule="evenodd"/>
            <path d="M1.44 0.93L0.55 1.86L16.55 13.06L17.44 12.13L1.44 0.93Z" fill="#C7152A" fill-opacity="1.000000" fill-rule="evenodd"/>
            <path d="M15.66 0.93L17.44 0.93L17.44 2.79C17.44 2.79 7 9.7 2.34 13.09C2.29 13.13 0.57 13.09 0.57 13.09L0.43 11.32L15.66 0.93Z" fill="#FFFFFF" fill-opacity="1.000000" fill-rule="evenodd"/>
            <path d="M16.59 0.9L17.44 1.86L1.44 13.06L0.55 12.13L16.59 0.9Z" fill="#C7152A" fill-opacity="1.000000" fill-rule="evenodd"/>
            <path d="M6.77 0.93L11.22 0.93L11.22 4.66L17.44 4.66L17.44 9.33L11.22 9.33L11.22 13.06L6.77 13.06L6.77 9.33L0.55 9.33L0.55 4.66L6.77 4.66L6.77 0.93Z" fill="#FFFFFF" fill-opacity="1.000000" fill-rule="evenodd"/>
            <path d="M7.66 0.93L10.33 0.93L10.33 5.6L17.44 5.6L17.44 8.4L10.33 8.4L10.33 13.06L7.66 13.06L7.66 8.4L0.55 8.4L0.55 5.6L7.66 5.6L7.66 0.93Z" fill="#C7152A" fill-opacity="1.000000" fill-rule="evenodd"/>
            <path d="M16.55 0.46C17.29 0.46 17.88 1.09 17.88 1.86L17.88 12.13C17.88 12.9 17.29 13.53 16.55 13.53L1.44 13.53C0.7 13.53 0.11 12.9 0.11 12.13L0.11 1.86C0.11 1.09 0.7 0.46 1.44 0.46L16.55 0.46Z" stroke="#000000" stroke-opacity="0.100000" stroke-width="1.000000"/>
        </g>
    </symbol>

    <symbol viewBox="0 0 16 12" id="spain">
        <g>
            <clipPath id="clip7_580">
                <rect width="16.000000" height="12.000000" fill="white" fill-opacity="0"/>
            </clipPath>
            <g clip-path="url(#clip7_580)">
                <path d="M-9.54e-6 0L16 0C16.84 0 16 0.71 16 1.59L16 12C16 12.88 15.31 12 14.47 12L1.52 12C0.68 12 0 12.88 0 12L0 1.59C0 0.71 -0.85 0 -9.54e-6 0Z" fill="#CD0B20" fill-opacity="1.000000" fill-rule="evenodd"/>
                <path d="M0 3.2L16 3.2L16 8.79L0 8.79L0 3.2Z" fill="#FFCB00" fill-opacity="1.000000" fill-rule="evenodd"/>
                <path d="M6.85 4.97L6.85 6.99C6.85 7.55 6.34 8 5.71 8L4.19 8C3.56 8 3.04 7.54 3.04 6.99L3.04 4.97C3.04 4.51 3.38 4.13 3.85 4.01C4 3.59 4.43 3.96 4.95 3.96C5.47 3.96 5.9 3.59 6.04 4.01C6.51 4.13 6.85 4.52 6.85 4.97Z" fill="#C8B47C" fill-opacity="1.000000" fill-rule="evenodd"/>
                <path d="M6.85 5.59L7.61 5.59L7.61 8L6.85 8L6.85 5.59ZM2.28 5.59L3.04 5.59L3.04 8L2.28 8L2.28 5.59Z" fill="#B5B5B5" fill-opacity="1.000000" fill-rule="evenodd"/>
                <path d="M6.85 7.2L7.61 7.2L7.61 8L6.85 8L6.85 7.2ZM2.28 7.2L3.04 7.2L3.04 8L2.28 8L2.28 7.2Z" fill="#165C96" fill-opacity="1.000000" fill-rule="evenodd"/>
                <path d="M6.85 4.79L7.61 4.79L7.61 5.59L6.85 5.59L6.85 4.79ZM2.28 4.79L3.04 4.79L3.04 5.59L2.28 5.59L2.28 4.79Z" fill="#A0790A" fill-opacity="1.000000" fill-rule="evenodd"/>
                <path d="M3.8 4.79L4.57 4.79L4.57 6L3.8 6L3.8 4.79ZM5.33 6.39L6.09 6.39L6.09 7.59L5.33 7.59L5.33 6.39Z" fill="#D20636" fill-opacity="1.000000" fill-rule="evenodd"/>
                <path d="M5.33 4.79L6.09 4.79L6.09 6L5.33 6L5.33 4.79Z" fill="#A18793" fill-opacity="1.000000" fill-rule="evenodd"/>
                <path d="M3.8 6.4L4.57 6.4L4.57 7.6L3.8 7.6L3.8 6.4Z" fill="#FFE100" fill-opacity="1.000000" fill-rule="evenodd"/>
                <path d="M4.57 4.79L3.8 4L6.09 4L5.33 4.79L4.57 4.79Z" fill="#B6161A" fill-opacity="1.000000" fill-rule="evenodd"/>
                <path d="M4.57 3.2L5.33 3.2L5.33 4L4.57 4L4.57 3.2Z" fill="#AC9300" fill-opacity="1.000000" fill-rule="evenodd"/>
            </g>
        </g>
    </symbol>

   <symbol viewBox="0 0 512 512" id="palette">
        <g>
            <path d="M204.3 5.017C104.9 24.42 24.8 104.4 5.171 203.5c-36.1 187 131.7 326.4 258.8 306.7 41.19-6.406 61.41-54.61 42.5-91.7-23.09-45.41 9.897-98.4 60.9-98.4h79.7c35.81 0 64.8-29.59 64.9-65.31C511.5 97.13 368.1-26.89 204.3 5.017zM96 320c-17.69 0-32-14.31-32-32 0-17.69 14.31-32.03 31.1-32.03s32 14.31 32 31.1C127.1 305.7 113.7 320 96 320zm32-128c-17.69 0-32-14.31-32-32s14.31-32 32-32 32 14.31 32 32-14.3 32-32 32zm128-64c-17.69 0-32-14.31-32-32s14.3-31.96 32-31.96 32 14.31 32 32S273.7 128 256 128zm128 64c-17.69 0-32-14.31-32-32s14.31-32 32-32 32 14.31 32 32-14.3 32-32 32z" fill="#9251F7"/>
        </g>
    </symbol>

    <symbol viewBox="0 0 7 5" id="dev">
        <path d="M1.67 4L-0.34 2L1.67 0L2.14 0.47L0.6 2L2.14 3.53L1.67 4L1.67 4ZM4.32 4L3.85 3.53L5.39 2L3.85 0.46L4.33 0L6.33 2L4.33 4L4.32 4Z" fill="#516CF7" fill-opacity="1.000000" fill-rule="nonzero"/>
    </symbol>

    <symbol viewBox="0 0 256 256" id="icn-figma">
        <g>
            <path d="M186.615 94A41.98 41.98 0 0 0 162 18.001H94a41.98 41.98 0 0 0-24.615 76 41.939 41.939 0 0 0 0 67.999A41.99 41.99 0 1 0 136 196v-35.052A41.974 41.974 0 1 0 186.615 94zM188 60.001a26.03 26.03 0 0 1-25.98 26L162 86l-.039.001L136 86V34.001h26a26.03 26.03 0 0 1 26 26zm-120 0a26.03 26.03 0 0 1 26-26h26V86H93.981A26.03 26.03 0 0 1 68 60.001zM68 128a26.03 26.03 0 0 1 25.981-26l.019.001h26v51.998L94 154a26.03 26.03 0 0 1-26-26zm26 93.999A26 26 0 1 1 94 170h26v26a26.03 26.03 0 0 1-26 25.999zM162 154a26 26 0 0 1-.039-51.999H162.02A26 26 0 0 1 162 154z" fill="#516CF7"/>
        </g>
    </symbol>

    <symbol viewBox="0 0 256 256" id="link">
        <path d="m85.568 153.446 67.883-67.882a12 12 0 1 1 16.97 16.971l-67.882 67.882a12 12 0 1 1-16.971-16.97zm50.91 16.979-28.284 28.284a36 36 0 0 1-50.912-50.911l28.284-28.284a12 12 0 0 0-16.97-16.971L40.31 130.827a60 60 0 0 0 84.854 84.853l28.284-28.284a12 12 0 0 0-16.971-16.971zm79.201-130.113a60.068 60.068 0 0 0-84.853 0l-28.284 28.285a12 12 0 0 0 16.97 16.97l28.284-28.284a36 36 0 0 1 50.913 50.911l-28.285 28.285a12 12 0 0 0 16.971 16.97l28.284-28.284a60 60 0 0 0 0-84.853z" fill="#516CF7"/>
    </symbol>

</svg>
