<svg xmlns="http://www.w3.org/2000/svg" viewBox="0 0 96 96" style="shape-rendering:geometricPrecision;text-rendering:geometricPrecision;image-rendering:optimizeQuality;fill-rule:evenodd;clip-rule:evenodd"><path style="opacity:.988" fill="#9c0646" d="M25.5 7.5c14.67-.167 29.337 0 44 .5 2.117 1.73 3.617 3.898 4.5 6.5a263.458 263.458 0 0 0 8.5 20c2.866.708 5.7 1.375 8.5 2a16.25 16.25 0 0 1 0 8A406.646 406.646 0 0 1 79.5 82a263.996 263.996 0 0 1-32 1.5l-30-.5a9.468 9.468 0 0 1-2.5-1.5c-5.413-14.65-9.08-29.65-11-45 2.8-.625 5.634-1.292 8.5-2a168.064 168.064 0 0 1 13-27zm5 8a289.882 289.882 0 0 1 34 1l8 18a313.008 313.008 0 0 1-50 0 234.577 234.577 0 0 0 8-19zm-1 33c2.739-.535 4.572.465 5.5 3a64.247 64.247 0 0 1 0 16c-2.333 4-4.667 4-7 0-1.03-6.54-.53-12.874 1.5-19zm16 0c2.739-.535 4.572.465 5.5 3a64.247 64.247 0 0 1 0 16c-2.333 4-4.667 4-7 0-1.03-6.54-.53-12.874 1.5-19zm16 0c2.739-.535 4.572.465 5.5 3a64.247 64.247 0 0 1 0 16c-2.333 4-4.667 4-7 0-1.03-6.54-.53-12.874 1.5-19z"/></svg>