<svg xmlns="http://www.w3.org/2000/svg" width="100" height="100" style="shape-rendering:geometricPrecision;text-rendering:geometricPrecision;image-rendering:optimizeQuality;fill-rule:evenodd;clip-rule:evenodd"><path style="opacity:.973" fill="#9b0646" d="M66.5 99.5h-34a32.832 32.832 0 0 1-4.5-5c-.667-19-.667-38 0-57a112.524 112.524 0 0 1 7.5-21c-6.025-14.318-1.358-19.318 14-15 15.359-4.318 20.025.682 14 15 7.416 15.66 10.083 32.16 8 49.5L71 94.5a32.832 32.832 0 0 1-4.5 5zm-29-94h24v6h-24v-6zm5 10c4.678-.166 9.345 0 14 .5 4.673 7.185 7.84 15.019 9.5 23.5a336.07 336.07 0 0 1 1 50c-.5 3.167-2.333 5-5.5 5.5a97.909 97.909 0 0 1-27-1c-1.393-1.171-2.227-2.671-2.5-4.5a484.226 484.226 0 0 1 0-44c1.23-10.861 4.73-20.861 10.5-30z"/></svg>