<svg xmlns="http://www.w3.org/2000/svg" width="50" height="50" style="shape-rendering:geometricPrecision;text-rendering:geometricPrecision;image-rendering:optimizeQuality;fill-rule:evenodd;clip-rule:evenodd"><path style="opacity:.693" fill="#fefffe" d="M21.5 2.5c7.65-.85 12.65 2.317 15 9.5-.406 6.37-2.073 12.37-5 18 .26 1.261.926 2.261 2 3a76.609 76.609 0 0 1 9 4c2.074 2.302 3.408 4.968 4 8-14 .667-28 .667-42 0 .592-3.032 1.926-5.698 4-8A53.661 53.661 0 0 0 19 31.5c-1.925-5.047-3.092-10.38-3.5-16-1.41-6.172.59-10.505 6-13zm1 3c9.704-.18 12.704 4.154 9 13l1 2c-7.028 9.62-4.695 15.787 7 18.5a14.974 14.974 0 0 1 3 3.5 145.004 145.004 0 0 1-34 0 14.974 14.974 0 0 1 3-3.5c11.695-2.713 14.028-8.88 7-18.5.58-2.387.58-4.887 0-7.5-.543-3.597.79-6.097 4-7.5z"/></svg>