<svg xmlns="http://www.w3.org/2000/svg" width="50" height="50" style="shape-rendering:geometricPrecision;text-rendering:geometricPrecision;image-rendering:optimizeQuality;fill-rule:evenodd;clip-rule:evenodd"><path style="opacity:.925" fill="#fefffe" d="M11.5-.5h5v5c6.342-.166 12.675 0 19 .5L37 6.5a342.483 342.483 0 0 1 0 37L35.5 45c-7.333.667-14.667.667-22 0L12 43.5a968.43 968.43 0 0 1-.5-44zm2 2c.951 1.419 1.284 3.085 1 5 6.01-.166 12.01 0 18 .5 1.167.5 2 1.333 2.5 2.5.81 10.713.643 21.38-.5 32a4.452 4.452 0 0 1-2 1.5c-5 .667-10 .667-15 0-1.833-.5-3-1.667-3.5-3.5a722.368 722.368 0 0 1-.5-38zm5 10a72.444 72.444 0 0 1 12 .5c1.11 2.737 1.277 5.57.5 8.5-4.078 1.13-8.245 1.296-12.5.5-1.292-3.165-1.292-6.332 0-9.5z"/><path style="opacity:.9" fill="#fefffe" d="M15.5 9.5h18v14h-18v-14zm3 2c-1.292 3.168-1.292 6.335 0 9.5 4.255.796 8.422.63 12.5-.5.777-2.93.61-5.763-.5-8.5a72.444 72.444 0 0 0-12-.5z"/><path style="opacity:.766" fill="#fefffe" d="M16.5 25.5h4v4h-4v-4zM22.5 25.5h4v4h-4v-4zM28.5 25.5h4v4h-4v-4zM16.5 31.5h4v4h-4v-4zM22.5 31.5h4v4h-4v-4zM28.5 31.5h4v4h-4v-4zM16.5 37.5h4v4h-4v-4zM22.5 37.5h4v4h-4v-4zM28.5 37.5h4v4h-4v-4z"/></svg>