<svg xmlns="http://www.w3.org/2000/svg" width="100" height="100" style="shape-rendering:geometricPrecision;text-rendering:geometricPrecision;image-rendering:optimizeQuality;fill-rule:evenodd;clip-rule:evenodd"><path style="opacity:.99" fill="#9c0646" d="M18.5 3.5h69v74c-21.336-.167-42.67 0-64 .5-7.546 1.948-8.879 5.948-4 12l4 1c21.33.5 42.664.667 64 .5v4c-23.002.167-46.002 0-69-.5-3.083-.786-5.25-2.62-6.5-5.5a1560.422 1560.422 0 0 1 0-79c1.694-2.858 3.86-5.191 6.5-7zm5 4h60v66a2112.9 2112.9 0 0 0-65 .5 9.468 9.468 0 0 0-2.5 1.5c-.667-20-.667-40 0-60 .68-4.51 3.18-7.177 7.5-8zm39 15c6.251-.788 8.085 1.545 5.5 7-2.226 4.36-5.726 5.86-10.5 4.5-2.01-5.478-.343-9.311 5-11.5z"/><path style="opacity:.917" fill="#9c0646" d="M29.5 17.5c1.7-.16 3.366.006 5 .5a116.077 116.077 0 0 1 15 16.5c-.368 1.41-1.201 2.41-2.5 3a128.543 128.543 0 0 1-14-13c-.667 1.333-.667 2.667 0 4a59.688 59.688 0 0 1 10.5 12c-1.193 1.884-2.86 2.384-5 1.5L29 32.5c-2.083-5.137-1.916-10.137.5-15z"/><path style="opacity:.903" fill="#9b0646" d="M60.5 17.5c13.433-.7 16.933 4.967 10.5 17a17.834 17.834 0 0 1-5.5 4.5l-11 1-23 23a8.434 8.434 0 0 1-4 .5 8.434 8.434 0 0 1 .5-4l23-23c-1.56-8.882 1.607-15.215 9.5-19zm2 5c-5.343 2.189-7.01 6.022-5 11.5 4.774 1.36 8.274-.14 10.5-4.5 2.585-5.455.751-7.788-5.5-7z"/><path style="opacity:.906" fill="#9c0645" d="M54.5 41.5a4.932 4.932 0 0 1 3 .5L76 60.5c.667.667.667 1.333 0 2-1.388 1.054-2.888 1.22-4.5.5a194.788 194.788 0 0 0-12-11.5c-5.728 5.986-9.395 4.986-11-3 2.307.486 4.473.486 6.5 0 .115-1.607-.385-3.107-1.5-4.5.243-.902.577-1.735 1-2.5z"/></svg>