<svg xmlns="http://www.w3.org/2000/svg" width="3362" height="2428" style="shape-rendering:geometricPrecision;text-rendering:geometricPrecision;image-rendering:optimizeQuality;fill-rule:evenodd;clip-rule:evenodd"><path style="opacity:.999" fill="#fde5ea" d="M2288.5-.5h47c199.86 14.465 391.86 61.298 576 140.5 84.59 37.259 162.59 84.592 234 142 54.67 44.984 100.84 97.151 138.5 156.5 46.26 76.293 72.1 158.96 77.5 248v72c-8.03 118.66-29.53 234.993-64.5 349-43.83 143.32-98.5 282.32-164 417-76.65 159.07-165.65 310.07-267 453a1786.645 1786.645 0 0 1-118 147c-21.17 22.5-43 44.33-65.5 65.5-26.96 25.28-56.96 46.28-90 63-23.6 10.16-48.26 14.49-74 13-25.39 2.14-50.72 4.81-76 8a478574.84 478574.84 0 0 0-477 63 13485.569 13485.569 0 0 1-660 70 7844.919 7844.919 0 0 1-396 20.5h-183c-107.367-1.96-214.367-10.46-321-25.5-75.732-10.68-149.399-29.35-221-56-37.98-14.81-72.98-34.48-105-59-25.83-20.53-46.33-45.36-61.5-74.5-9.931-21.07-16.098-43.07-18.5-66v-32c3.582-17.89 10.416-34.56 20.5-50 21.46-29.13 46.627-54.63 75.5-76.5 42.638-31.33 87.305-59.66 134-85a3306.679 3306.679 0 0 1 234-112c47.918-20.53 95.918-40.86 144-61a57076.839 57076.839 0 0 0 431-176 4261.12 4261.12 0 0 0 336-156c56.34-29.82 110.34-63.16 162-100 28.28-20.93 54.78-44.1 79.5-69.5 17.08-19.42 31.41-40.76 43-64 10.23-26.07 13.9-53.07 11-81a352.515 352.515 0 0 0-21-84c-22.73-54.456-49.39-106.789-80-157a6779.876 6779.876 0 0 1-113-190 1012.942 1012.942 0 0 1-57-122c-16.4-42.326-25.23-86.16-26.5-131.5-.17-59.455 19.33-111.288 58.5-155.5 32.28-34.3 69.11-62.467 110.5-84.5 68.18-34.951 139.51-61.618 214-80a2591.015 2591.015 0 0 1 317-58 6963.687 6963.687 0 0 1 216-21.5z"/></svg>