<svg xmlns="http://www.w3.org/2000/svg" width="100" height="100" style="shape-rendering:geometricPrecision;text-rendering:geometricPrecision;image-rendering:optimizeQuality;fill-rule:evenodd;clip-rule:evenodd"><path style="opacity:.998" fill="#9c0645" d="M18.5 10.5c25.708.825 51.374 1.159 77 1v52h-92v-52c5.195.32 10.195-.013 15-1zm-11 5h10v44h-10v-44zm14 0h56v44h-56v-44zm60 0h10v44h-10v-44z"/><path style="opacity:.926" fill="#9c0646" d="M44.5 21.5c9.029-1.996 14.696 1.337 17 10 5.658-.342 8.324 2.324 8 8-.166 6.434-3.5 9.1-10 8-.207-3.245 1.293-5.245 4.5-6 .667-1.333.667-2.667 0-4a34.146 34.146 0 0 0-6.5-3c-1.658-7.496-5.991-9.662-13-6.5a26.76 26.76 0 0 0-3 6.5 34.146 34.146 0 0 0-6.5 3c-1.165 3.314.002 5.314 3.5 6 .929 1.189 1.262 2.522 1 4-9.626-.226-12.46-4.893-8.5-14 1.897-1.516 4.064-2.183 6.5-2 .776-4.44 3.11-7.773 7-10z"/><path style="opacity:.915" fill="#9c0645" d="M74.5 64.5c.996-.086 1.83.248 2.5 1 .497 2.646.664 5.313.5 8 2.437.256 4.77.923 7 2a25.87 25.87 0 0 0 1-10h4v16a391.778 391.778 0 0 0-38-8.5 1263.706 1263.706 0 0 0-48-4c-1.333-1-1.333-2 0-3a270.728 270.728 0 0 1 70 5.5c-.202-2.45.131-4.783 1-7z"/><path style="opacity:.924" fill="#9c0645" d="M3.5 71.5c22.797-.867 44.797 2.8 66 11v-4h4c-1.31 5.18.524 8.513 5.5 10 .497-2.31.663-4.643.5-7h4v14a8.434 8.434 0 0 1-4-.5c-16.468-10.378-34.468-16.378-54-18l-19-1c-3.403-.2-4.403-1.7-3-4.5z"/></svg>