<svg xmlns="http://www.w3.org/2000/svg" width="65" height="72" style="shape-rendering:geometricPrecision;text-rendering:geometricPrecision;image-rendering:optimizeQuality;fill-rule:evenodd;clip-rule:evenodd"><path style="opacity:.971" fill="#a7295e" d="M5.5-.5h8a1026.48 1026.48 0 0 1 37 22c-.06.543-.393.876-1 1a1362.234 1362.234 0 0 0-50-12v-6c2.025-1.696 4.025-3.363 6-5z"/><path style="opacity:.995" fill="#a6265c" d="M-.5 10.5a1362.234 1362.234 0 0 1 50 12c.607-.124.94-.457 1-1 5.213 1.77 9.547 4.77 13 9a2.428 2.428 0 0 1-.5 2 1757.308 1757.308 0 0 0-63.5-15v-7z"/><path style="opacity:.995" fill="#a52259" d="M-.5 17.5a1757.308 1757.308 0 0 1 63.5 15 2.428 2.428 0 0 0 .5-2h1v10c-3.312 3.659-7.312 6.325-12 8a3073.532 3073.532 0 0 0-53-13v-18z"/><path style="opacity:.992" fill="#a31d55" d="M-.5 35.5a3073.532 3073.532 0 0 1 53 13c-6.63 3.985-13.298 7.985-20 12v-3a1450.557 1450.557 0 0 1-33-7v-15z"/><path style="opacity:.993" fill="#a11953" d="M-.5 50.5a1450.557 1450.557 0 0 0 33 7v3c-3.35 1.696-6.683 3.363-10 5a190.55 190.55 0 0 1-23-5v-10z"/><path style="opacity:.938" fill="#a01550" d="M-.5 60.5a190.55 190.55 0 0 0 23 5 64.717 64.717 0 0 1-9 6h-8a1469.012 1469.012 0 0 1-6-5v-6z"/></svg>