<svg xmlns="http://www.w3.org/2000/svg" width="48" height="48" style="shape-rendering:geometricPrecision;text-rendering:geometricPrecision;image-rendering:optimizeQuality;fill-rule:evenodd;clip-rule:evenodd"><path style="opacity:.981" fill="#fefffe" d="M4.5 5.5c12.671-.167 25.338 0 38 .5a201.185 201.185 0 0 1 .5 34.5 250.126 250.126 0 0 1-38.5.5 159.194 159.194 0 0 1 0-35.5zm3 4h32v28h-32v-28z"/><path style="opacity:.853" fill="#fefffe" d="M17.5 15.5a128.952 128.952 0 0 1 13 6.5c.95.718 1.117 1.55.5 2.5a228.073 228.073 0 0 0-12.5 7 64.875 64.875 0 0 1-1-16z"/></svg>