<svg xmlns="http://www.w3.org/2000/svg" width="100" height="100" style="shape-rendering:geometricPrecision;text-rendering:geometricPrecision;image-rendering:optimizeQuality;fill-rule:evenodd;clip-rule:evenodd"><path style="opacity:.912" fill="#9c0646" d="M39.5-.5h20a177.508 177.508 0 0 0 18 4.5C85 7.5 87.832 13.333 86 21.5c-1.28 3.102-3.114 5.77-5.5 8a720.044 720.044 0 0 0 5 29.5c.272 5.23-2.062 8.73-7 10.5-4.05 13.016-11.716 23.016-23 30h-12c-11.284-6.984-18.95-16.984-23-30-4.938-1.77-7.271-5.27-7-10.5a720.044 720.044 0 0 0 5-29.5c-6.436-6.075-7.603-13.075-3.5-21 1.73-2.117 3.898-3.617 6.5-4.5a742.37 742.37 0 0 0 18-4.5zm2 5c12.38-.557 24.38 1.276 36 5.5 5.66 4.98 5.326 9.314-1 13-4.55 1.337-8.217.17-11-3.5-1.545-.952-3.212-1.285-5-1 .588 4.767 3.255 7.934 8 9.5 2.31.497 4.643.663 7 .5a68.509 68.509 0 0 0 2 11.5 267.795 267.795 0 0 0-28-2.5 267.795 267.795 0 0 0-28 2.5c.99-3.76 1.823-7.593 2.5-11.5 2.98-1.036 5.48-2.702 7.5-5-.848-1.491-2.181-2.158-4-2-8.56 2.938-11.393-.062-8.5-9A11.529 11.529 0 0 1 23.5 9a742.37 742.37 0 0 0 18-4.5zm-1 38a150.68 150.68 0 0 1 35 3 25.87 25.87 0 0 0 1 10c1-1.333 2-1.333 3 0 1.971 5.054.305 8.387-5 10-3.404 11.003-9.404 20.17-18 27.5-8.203 3.263-15.036 1.43-20.5-5.5a115.008 115.008 0 0 1-11.5-22c-5.305-1.613-6.971-4.946-5-10 1-1.333 2-1.333 3 0a25.87 25.87 0 0 0 1-10 443.433 443.433 0 0 0 17-3z"/></svg>