<svg xmlns="http://www.w3.org/2000/svg" width="120" height="120" style="shape-rendering:geometricPrecision;text-rendering:geometricPrecision;image-rendering:optimizeQuality;fill-rule:evenodd;clip-rule:evenodd"><path style="opacity:.859" fill="#9b0645" d="M43.5 3.5c5.831-.498 11.164.835 16 4a53.564 53.564 0 0 0 8-3.5c7.314-.908 12.314 2.259 15 9.5 4.632.828 9.298 1.328 14 1.5l1.5 1.5a44.193 44.193 0 0 1 2.5 14c2.938 1.128 5.938 2.295 9 3.5a6.977 6.977 0 0 1 2.5 3.5c.613 4.931.113 9.764-1.5 14.5a73.126 73.126 0 0 1 6 13 9.622 9.622 0 0 1-1.5 4.5c-3.856 3.005-6.69 6.672-8.5 11a38.218 38.218 0 0 1 1.5 9 20.495 20.495 0 0 0-2.5 3.5c-4.005 1.337-8.005 2.67-12 4a36.435 36.435 0 0 1-6 12c-4.957 1.408-9.957 1.242-15-.5a86.928 86.928 0 0 0-9 6.5 16.242 16.242 0 0 1-8 0 81.722 81.722 0 0 0-9-6.5c-5.043 1.742-10.043 1.908-15 .5a35.478 35.478 0 0 1-6-12 216.326 216.326 0 0 1-12-4c-3.63-4.418-3.964-9.084-1-14A57 57 0 0 0 4 69.5a10.413 10.413 0 0 1-1.5-5c1.139-4.46 3.139-8.46 6-12-.654-4.142-1.988-7.975-4-11.5 2.574-6.136 7.24-9.636 14-10.5.08-4.816.914-9.483 2.5-14l1.5-1.5c4.702-.172 9.369-.672 14-1.5 1.863-3.75 4.197-7.083 7-10zm3 7a111.992 111.992 0 0 0 13 5 35.429 35.429 0 0 0 11.5-5 89.813 89.813 0 0 1 6.5 9 38.674 38.674 0 0 0 15 2c-1.316 10.053 2.85 16.387 12.5 19a108.151 108.151 0 0 1-2.5 12.5 70.315 70.315 0 0 0 6 12 85.417 85.417 0 0 1-8 7.5 34.74 34.74 0 0 0 0 15c-4.58.453-8.914 1.786-13 4a89.663 89.663 0 0 1-5.5 12 193.576 193.576 0 0 0-10.5-3c-4.61 1.646-8.61 4.313-12 8-3.52-3.834-7.686-6.5-12.5-8-3.367 1.012-6.7 2.012-10 3a39.173 39.173 0 0 1-5.5-12 41.466 41.466 0 0 0-13-4c.503-4.672.67-9.34.5-14a107.987 107.987 0 0 1-8.5-9 88.29 88.29 0 0 0 6-11c-1.645-4.234-2.478-8.568-2.5-13a35.457 35.457 0 0 0 10.5-7 87.203 87.203 0 0 0 2-12 67.7 67.7 0 0 0 15-2c2.169-2.807 3.836-5.807 5-9zm-2 29h4v13h-4c-.613-4.188-.613-8.521 0-13zm26 27h4v13h-4v-13z"/><path style="opacity:.863" fill="#9c0646" d="M40.5 32.5a60.94 60.94 0 0 1 11 .5c1.5.833 2.667 2 3.5 3.5.667 6.667.667 13.333 0 20-5.709 5.326-11.375 5.326-17 0a100.245 100.245 0 0 1 0-20 16.569 16.569 0 0 1 2.5-4zm4 7c-.613 4.479-.613 8.812 0 13h4v-13h-4z"/><path style="opacity:.838" fill="#9c0645" d="M69.5 32.5h7c-.192 4.383-1.525 8.383-4 12a1210.27 1210.27 0 0 0-23 41 13.117 13.117 0 0 1-7 1 36.476 36.476 0 0 1 3.5-11 545.834 545.834 0 0 0 16-27 189.3 189.3 0 0 0 7.5-16z"/><path style="opacity:.86" fill="#9b0645" d="M67.5 58.5c5.35-1.039 9.85.295 13.5 4 .667 6.667.667 13.333 0 20a6.975 6.975 0 0 1-2.5 3.5 30.499 30.499 0 0 1-11 0c-1.5-.833-2.667-2-3.5-3.5a100.245 100.245 0 0 1 0-20c2.071-.603 3.238-1.936 3.5-4zm3 8v13h4v-13h-4z"/></svg>