<svg xmlns="http://www.w3.org/2000/svg" width="100" height="100" style="shape-rendering:geometricPrecision;text-rendering:geometricPrecision;image-rendering:optimizeQuality;fill-rule:evenodd;clip-rule:evenodd"><path style="opacity:.991" fill="#9c0745" d="M20.5 3.5c6.675-.166 13.342 0 20 .5.837 1.011 1.17 2.178 1 3.5h18c-.17-1.322.163-2.489 1-3.5 6-.667 12-.667 18 0 .837 1.011 1.17 2.178 1 3.5 3.35-.165 6.683.002 10 .5L91 9.5c.667 26 .667 52 0 78-2.826 1.84-5.993 2.507-9.5 2 .772 5.394-1.562 7.394-7 6-5.438 1.394-7.772-.606-7-6h-36c.772 5.394-1.562 7.394-7 6-5.438 1.394-7.772-.606-7-6-3.507.507-6.674-.16-9.5-2-.667-26-.667-52 0-78L9.5 8a50.438 50.438 0 0 1 10-.5c-.067-1.459.266-2.792 1-4zm-7 8c24.002-.167 48.002 0 72 .5l1.5 1.5c.5 4.655.666 9.322.5 14h-76c-.166-4.678 0-9.345.5-14 .717-.544 1.217-1.21 1.5-2zm-2 20h76c.167 17.337 0 34.67-.5 52L85.5 85c-24 .667-48 .667-72 0L12 83.5c-.5-17.33-.667-34.663-.5-52zm10 10h56v34h-56v-34zm0 48a9.864 9.864 0 0 1 6 1l-3 1c-1.53-.14-2.53-.806-3-2zm50 0a9.864 9.864 0 0 1 6 1l-3 1c-1.53-.14-2.53-.806-3-2z"/><path style="opacity:.905" fill="#9c0746" d="M16.5 15.5c6.658-1.155 8.658 1.345 6 7.5-6.75 1.469-8.75-1.031-6-7.5zM28.5 15.5c6.658-1.155 8.658 1.345 6 7.5-6.75 1.469-8.75-1.031-6-7.5zM40.5 15.5c6.658-1.155 8.658 1.345 6 7.5-6.75 1.469-8.75-1.031-6-7.5zM52.5 15.5c6.658-1.155 8.658 1.345 6 7.5-6.75 1.469-8.75-1.031-6-7.5zM76.5 15.5c6.658-1.155 8.658 1.345 6 7.5-6.75 1.469-8.75-1.031-6-7.5z"/><path style="opacity:1" fill="#9b0745" d="M17.5 37.5h64v42h-64v-42zm4 4v34h56v-34h-56z"/></svg>